<svg width="24" height="26" viewBox="0 0 24 26" fill="none" xmlns="http://www.w3.org/2000/svg">
<path d="M20.8205 1.56494H3.29444C2.33678 1.56494 1.50006 2.28385 1.50006 3.27125V21.5971C1.50006 22.5899 2.33678 23.4746 3.29444 23.4746H20.8154C21.7782 23.4746 22.5001 22.584 22.5001 21.5971V3.27125C22.5057 2.28385 21.7782 1.56494 20.8205 1.56494ZM8.00959 19.8277H5.00116V10.0686H8.00959V19.8277ZM6.60944 8.58483H6.58787C5.62506 8.58483 5.00162 7.83707 5.00162 6.90102C5.00162 5.94785 5.64147 5.21769 6.62584 5.21769C7.61022 5.21769 8.21256 5.94247 8.23412 6.90102C8.23366 7.83707 7.61022 8.58483 6.60944 8.58483ZM19.0046 19.8277H15.9962V14.4916C15.9962 13.2132 15.5583 12.3398 14.4699 12.3398C13.6383 12.3398 13.1462 12.9267 12.9272 13.4984C12.8452 13.7038 12.8232 13.9835 12.8232 14.2691V19.8277H9.81475V10.0686H12.8232V11.4267C13.261 10.7763 13.9449 9.84023 15.5363 9.84023C17.5112 9.84023 19.0051 11.1983 19.0051 14.1263L19.0046 19.8277Z" fill="white"/>
</svg>
