<svg width="0" height="0" class="hidden">
  <symbol fill="none" xmlns="http://www.w3.org/2000/svg" viewBox="0 0 24 24" id="music">
    <path d="M9 18V5L21 3V16" stroke="#171719" stroke-width="1.5" stroke-linecap="round" stroke-linejoin="round"></path>
    <path d="M6 21C7.65685 21 9 19.6569 9 18C9 16.3431 7.65685 15 6 15C4.34315 15 3 16.3431 3 18C3 19.6569 4.34315 21 6 21Z" stroke="#171719" stroke-width="1.5" stroke-linecap="round" stroke-linejoin="round"></path>
    <path d="M18 19C19.6569 19 21 17.6569 21 16C21 14.3431 19.6569 13 18 13C16.3431 13 15 14.3431 15 16C15 17.6569 16.3431 19 18 19Z" stroke="#171719" stroke-width="1.5" stroke-linecap="round" stroke-linejoin="round"></path>
  </symbol>
  <symbol fill="none" xmlns="http://www.w3.org/2000/svg" viewBox="0 0 24 24" id="person-outline">
    <path d="M16.125 6.75C15.9413 9.22828 14.0625 11.25 12 11.25C9.93754 11.25 8.05551 9.22875 7.87504 6.75C7.68754 4.17188 9.51566 2.25 12 2.25C14.4844 2.25 16.3125 4.21875 16.125 6.75Z" stroke="#171719" stroke-width="1.5" stroke-linecap="round" stroke-linejoin="round"></path>
    <path d="M12 14.25C7.92187 14.25 3.7828 16.5 3.01687 20.7469C2.92452 21.2588 3.21421 21.75 3.74999 21.75H20.25C20.7862 21.75 21.0759 21.2588 20.9836 20.7469C20.2172 16.5 16.0781 14.25 12 14.25Z" stroke="#171719" stroke-width="1.5" stroke-miterlimit="10"></path>
  </symbol>
</svg>