<svg width="24" height="26" viewBox="0 0 24 26" fill="none" xmlns="http://www.w3.org/2000/svg">
<path d="M23.2501 5.35509C22.4061 5.7377 21.5131 5.98978 20.5993 6.10334C21.5596 5.51666 22.2818 4.58462 22.6304 3.48201C21.7225 4.03591 20.7308 4.42455 19.6979 4.63129C19.2629 4.1557 18.7398 3.77735 18.1603 3.51925C17.5809 3.26115 16.9572 3.12868 16.3271 3.12989C13.7762 3.12989 11.7118 5.25239 11.7118 7.86883C11.71 8.23277 11.7499 8.59562 11.8308 8.94964C10.0016 8.86017 8.21046 8.37333 6.57193 7.52026C4.93339 6.66719 3.48357 5.46667 2.31522 3.99552C1.90533 4.71644 1.68856 5.53899 1.68756 6.37721C1.68756 8.02044 2.50928 9.47293 3.75006 10.3239C3.01493 10.3057 2.29487 10.1027 1.651 9.73213V9.79081C1.651 12.0894 3.24475 14.0016 5.35412 14.4368C4.95746 14.5472 4.5487 14.6031 4.13819 14.6031C3.84689 14.6036 3.55627 14.5742 3.27053 14.5151C3.85694 16.3979 5.56366 17.7673 7.58537 17.8064C5.94258 19.1273 3.92566 19.8412 1.85162 19.836C1.48348 19.8354 1.11567 19.8126 0.750061 19.7675C2.85999 21.1732 5.31261 21.9167 7.816 21.9096C16.3173 21.9096 20.9616 14.6862 20.9616 8.42146C20.9616 8.21606 20.9565 8.01065 20.9471 7.81014C21.8485 7.14114 22.6284 6.30978 23.2501 5.35509Z" fill="white"/>
</svg>
