<svg width="24" height="24" viewBox="0 0 24 24" fill="none" xmlns="http://www.w3.org/2000/svg">
<path d="M16.3654 6.41531C14.4754 6.41531 13.6766 7.31719 12.3604 7.31719C11.0108 7.31719 9.98147 6.42188 8.34366 6.42188C6.74053 6.42188 5.031 7.40063 3.94538 9.06797C2.421 11.4192 2.67975 15.8475 5.14866 19.62C6.03178 20.9705 7.21116 22.485 8.75803 22.5014H8.78616C10.1305 22.5014 10.5299 21.6211 12.3801 21.6108H12.4082C14.2307 21.6108 14.5963 22.4963 15.9351 22.4963H15.9632C17.5101 22.4798 18.7527 20.8017 19.6358 19.4564C20.2715 18.4889 20.5077 18.0033 20.9952 16.9088C17.4238 15.5531 16.8501 10.4902 20.3821 8.54906C19.304 7.19906 17.789 6.41719 16.3607 6.41719L16.3654 6.41531Z" fill="#171719"/>
<path d="M15.9486 1.5C14.8236 1.57641 13.5111 2.29266 12.7423 3.22781C12.0448 4.07531 11.4711 5.3325 11.6961 6.55172H11.7861C12.9842 6.55172 14.2105 5.83031 14.9267 4.90594C15.6167 4.02609 16.1398 2.77922 15.9486 1.5Z" fill="#171719"/>
</svg>
