<svg width="24" height="24" viewBox="0 0 24 24" fill="none" xmlns="http://www.w3.org/2000/svg">
<path d="M22.1789 10.3819L22.0729 9.93234H12.3023V14.0677H18.1401C17.534 16.9458 14.7215 18.4608 12.4242 18.4608C10.7526 18.4608 8.9906 17.7577 7.82436 16.6275C7.20904 16.0217 6.71926 15.3005 6.38304 14.5051C6.04682 13.7098 5.87078 12.856 5.86498 11.9925C5.86498 10.2506 6.64779 8.50828 7.78686 7.36219C8.92592 6.21609 10.6462 5.57484 12.3567 5.57484C14.3156 5.57484 15.7195 6.615 16.2445 7.08938L19.1831 4.16625C18.3211 3.40875 15.9529 1.5 12.262 1.5C9.41436 1.5 6.68389 2.59078 4.68795 4.58016C2.71826 6.53906 1.69873 9.37172 1.69873 12C1.69873 14.6283 2.66342 17.3194 4.57217 19.2938C6.6117 21.3994 9.50014 22.5 12.4744 22.5C15.1804 22.5 17.7454 21.4397 19.5736 19.5159C21.3708 17.6222 22.3003 15.0019 22.3003 12.255C22.3003 11.0986 22.184 10.4119 22.1789 10.3819Z" fill="#171719"/>
</svg>
