<svg width="12" height="12" viewBox="0 0 12 12" fill="none" xmlns="http://www.w3.org/2000/svg">
<path d="M2.73002 9.2449V7.7849C2.73002 7.2999 3.11002 6.8649 3.65002 6.8649C4.13502 6.8649 4.57002 7.2449 4.57002 7.7849V9.1899C4.57002 10.1649 3.76002 10.9749 2.78502 10.9749C1.81002 10.9749 1.00002 10.1599 1.00002 9.1899V6.1099C0.945024 3.2999 3.16502 1.0249 5.97502 1.0249C8.78502 1.0249 11 3.2999 11 6.0549V9.1349C11 10.1099 10.19 10.9199 9.21502 10.9199C8.24002 10.9199 7.43002 10.1099 7.43002 9.1349V7.7299C7.43002 7.2449 7.81002 6.8099 8.35002 6.8099C8.83502 6.8099 9.27002 7.1899 9.27002 7.7299V9.2449" stroke="white" stroke-width="0.75" stroke-linecap="round" stroke-linejoin="round"/>
</svg>
