<svg width="24" height="26" viewBox="0 0 24 26" fill="none" xmlns="http://www.w3.org/2000/svg">
<path d="M16.3748 3.39058C17.5342 3.39419 18.6451 3.87629 19.4648 4.73158C20.2846 5.58687 20.7467 6.74586 20.7502 7.95542V17.0841C20.7467 18.2937 20.2846 19.4527 19.4648 20.3079C18.6451 21.1632 17.5342 21.6453 16.3748 21.6489H7.62516C6.46582 21.6453 5.35495 21.1632 4.53517 20.3079C3.71539 19.4527 3.25331 18.2937 3.24984 17.0841V7.95542C3.25331 6.74586 3.71539 5.58687 4.53517 4.73158C5.35495 3.87629 6.46582 3.39419 7.62516 3.39058H16.3748ZM16.3748 1.56494H7.62516C4.25625 1.56494 1.5 4.44058 1.5 7.95542V17.0841C1.5 20.5989 4.25625 23.4746 7.62516 23.4746H16.3748C19.7438 23.4746 22.5 20.5989 22.5 17.0841V7.95542C22.5 4.44058 19.7438 1.56494 16.3748 1.56494Z" fill="white"/>
<path d="M17.6873 7.9555C17.4277 7.9555 17.1739 7.87519 16.9581 7.72473C16.7423 7.57426 16.574 7.36039 16.4747 7.11018C16.3754 6.85996 16.3494 6.58463 16.4 6.319C16.4506 6.05337 16.5757 5.80938 16.7592 5.61787C16.9428 5.42636 17.1766 5.29595 17.4312 5.24311C17.6858 5.19027 17.9497 5.21739 18.1896 5.32103C18.4294 5.42468 18.6344 5.60019 18.7786 5.82538C18.9228 6.05057 18.9998 6.31532 18.9998 6.58615C19.0002 6.76608 18.9665 6.94432 18.9006 7.11064C18.8348 7.27695 18.7381 7.42806 18.6162 7.55529C18.4942 7.68252 18.3494 7.78338 18.19 7.85205C18.0306 7.92073 17.8597 7.95589 17.6873 7.9555ZM11.9999 8.86808C12.6922 8.86808 13.3689 9.08225 13.9445 9.48351C14.5201 9.88477 14.9687 10.4551 15.2337 11.1224C15.4986 11.7896 15.5679 12.5239 15.4328 13.2323C15.2978 13.9406 14.9644 14.5913 14.4749 15.102C13.9854 15.6127 13.3618 15.9605 12.6828 16.1014C12.0038 16.2424 11.3001 16.17 10.6605 15.8936C10.0209 15.6172 9.47427 15.1492 9.08967 14.5487C8.70507 13.9481 8.49979 13.2421 8.49979 12.5198C8.50078 11.5517 8.86986 10.6234 9.52605 9.9388C10.1822 9.25419 11.0719 8.86911 11.9999 8.86808ZM11.9999 7.04244C10.9616 7.04244 9.94656 7.36368 9.0832 7.96555C8.21984 8.56741 7.54693 9.42287 7.14957 10.4237C6.75221 11.4246 6.64825 12.5259 6.85082 13.5884C7.05339 14.651 7.55341 15.6269 8.28763 16.393C9.02186 17.159 9.95732 17.6807 10.9757 17.892C11.9941 18.1034 13.0497 17.9949 14.009 17.5803C14.9683 17.1657 15.7883 16.4637 16.3652 15.5629C16.942 14.6622 17.2499 13.6032 17.2499 12.5198C17.2499 11.0671 16.6968 9.67395 15.7123 8.64673C14.7277 7.61952 13.3923 7.04244 11.9999 7.04244Z" fill="white"/>
</svg>
