<svg width="24" height="24" viewBox="0 0 24 24" fill="none" xmlns="http://www.w3.org/2000/svg">
<path d="M2.57999 8.66998C3.19999 6.90998 4.3 5.37998 5.72 4.22998" stroke="white" stroke-width="1.5" stroke-linecap="round" stroke-linejoin="round"/>
<path d="M2 12C2 13.17 2.20999 14.29 2.57999 15.33" stroke="white" stroke-width="1.5" stroke-linecap="round" stroke-linejoin="round"/>
<path d="M9.09 21.57C10.01 21.85 10.99 22 12 22C17.52 22 22 17.52 22 12C22 11.4 21.94 10.81 21.84 10.24" stroke="white" stroke-width="1.5" stroke-linecap="round" stroke-linejoin="round"/>
<path d="M5.72 19.75C5.25 19.37 4.79999 18.95 4.39999 18.49" stroke="white" stroke-width="1.5" stroke-linecap="round" stroke-linejoin="round"/>
<path d="M20.24 6.34003C18.44 3.72003 15.42 2 12 2C10.99 2 10.01 2.14999 9.09 2.42999" stroke="white" stroke-width="1.5" stroke-linecap="round" stroke-linejoin="round"/>
<path d="M8.59 17.11C9.46813 17.11 10.18 16.3982 10.18 15.52C10.18 14.6419 9.46813 13.93 8.59 13.93C7.71186 13.93 7 14.6419 7 15.52C7 16.3982 7.71186 17.11 8.59 17.11Z" stroke="white" stroke-width="1.5" stroke-linecap="round" stroke-linejoin="round"/>
<path d="M16 14.4601V8.25003C16 6.93003 15.17 6.74 14.33 6.97L11.15 7.84006C10.57 8.00006 10.17 8.45003 10.17 9.12003V10.23V10.97V15.5201" stroke="white" stroke-width="1.5" stroke-linecap="round" stroke-linejoin="round"/>
<path d="M14.41 16.05C15.2881 16.05 16 15.3382 16 14.46C16 13.5819 15.2881 12.87 14.41 12.87C13.5319 12.87 12.82 13.5819 12.82 14.46C12.82 15.3382 13.5319 16.05 14.41 16.05Z" stroke="white" stroke-width="1.5" stroke-linecap="round" stroke-linejoin="round"/>
<path d="M10.18 10.76L16 9.16998" stroke="white" stroke-width="1.5" stroke-linecap="round" stroke-linejoin="round"/>
</svg>
