<svg width="0" height="0" class="hidden">
  <symbol fill="none" xmlns="http://www.w3.org/2000/svg" viewBox="0 0 24 24" id="music">
    <path d="M9 18V5L21 3V16" stroke="#171719" stroke-width="1.5" stroke-linecap="round" stroke-linejoin="round"></path>
    <path d="M6 21C7.65685 21 9 19.6569 9 18C9 16.3431 7.65685 15 6 15C4.34315 15 3 16.3431 3 18C3 19.6569 4.34315 21 6 21Z" stroke="#171719" stroke-width="1.5" stroke-linecap="round" stroke-linejoin="round"></path>
    <path d="M18 19C19.6569 19 21 17.6569 21 16C21 14.3431 19.6569 13 18 13C16.3431 13 15 14.3431 15 16C15 17.6569 16.3431 19 18 19Z" stroke="#171719" stroke-width="1.5" stroke-linecap="round" stroke-linejoin="round"></path>
  </symbol>
  <symbol fill="none" xmlns="http://www.w3.org/2000/svg" viewBox="0 0 24 24" id="person-outline">
    <path d="M16.125 6.75C15.9413 9.22828 14.0625 11.25 12 11.25C9.93754 11.25 8.05551 9.22875 7.87504 6.75C7.68754 4.17188 9.51566 2.25 12 2.25C14.4844 2.25 16.3125 4.21875 16.125 6.75Z" stroke="#171719" stroke-width="1.5" stroke-linecap="round" stroke-linejoin="round"></path>
    <path d="M12 14.25C7.92187 14.25 3.7828 16.5 3.01687 20.7469C2.92452 21.2588 3.21421 21.75 3.74999 21.75H20.25C20.7862 21.75 21.0759 21.2588 20.9836 20.7469C20.2172 16.5 16.0781 14.25 12 14.25Z" stroke="#171719" stroke-width="1.5" stroke-miterlimit="10"></path>
  </symbol>

  <symbol fill="none" xmlns="http://www.w3.org/2000/svg" viewBox="0 0 24 24" id="google-dark">
    <path d="M22.1789 10.3819L22.0729 9.93234H12.3023V14.0677H18.1401C17.534 16.9458 14.7215 18.4608 12.4242 18.4608C10.7526 18.4608 8.9906 17.7577 7.82436 16.6275C7.20904 16.0217 6.71926 15.3005 6.38304 14.5051C6.04682 13.7098 5.87078 12.856 5.86498 11.9925C5.86498 10.2506 6.64779 8.50828 7.78686 7.36219C8.92592 6.21609 10.6462 5.57484 12.3567 5.57484C14.3156 5.57484 15.7195 6.615 16.2445 7.08938L19.1831 4.16625C18.3211 3.40875 15.9529 1.5 12.262 1.5C9.41436 1.5 6.68389 2.59078 4.68795 4.58016C2.71826 6.53906 1.69873 9.37172 1.69873 12C1.69873 14.6283 2.66342 17.3194 4.57217 19.2938C6.6117 21.3994 9.50014 22.5 12.4744 22.5C15.1804 22.5 17.7454 21.4397 19.5736 19.5159C21.3708 17.6222 22.3003 15.0019 22.3003 12.255C22.3003 11.0986 22.184 10.4119 22.1789 10.3819Z" fill="#171719"></path>
  </symbol>

  <symbol fill="none" xmlns="http://www.w3.org/2000/svg" viewBox="0 0 24 24" id="apple-dark">
    <path d="M16.3654 6.41531C14.4754 6.41531 13.6766 7.31719 12.3604 7.31719C11.0108 7.31719 9.98147 6.42188 8.34366 6.42188C6.74053 6.42188 5.031 7.40063 3.94538 9.06797C2.421 11.4192 2.67975 15.8475 5.14866 19.62C6.03178 20.9705 7.21116 22.485 8.75803 22.5014H8.78616C10.1305 22.5014 10.5299 21.6211 12.3801 21.6108H12.4082C14.2307 21.6108 14.5963 22.4963 15.9351 22.4963H15.9632C17.5101 22.4798 18.7527 20.8017 19.6358 19.4564C20.2715 18.4889 20.5077 18.0033 20.9952 16.9088C17.4238 15.5531 16.8501 10.4902 20.3821 8.54906C19.304 7.19906 17.789 6.41719 16.3607 6.41719L16.3654 6.41531Z" fill="#171719"></path>
    <path d="M15.9486 1.5C14.8236 1.57641 13.5111 2.29266 12.7423 3.22781C12.0448 4.07531 11.4711 5.3325 11.6961 6.55172H11.7861C12.9842 6.55172 14.2105 5.83031 14.9267 4.90594C15.6167 4.02609 16.1398 2.77922 15.9486 1.5Z" fill="#171719"></path>
  </symbol>

   <symbol fill="none" xmlns="http://www.w3.org/2000/svg" viewBox="0 0 24 24" id="facebook-dark">
    <path fill-rule="evenodd" clip-rule="evenodd" d="M22.5 12.0634C22.5 6.26494 17.7984 1.56338 12 1.56338C6.20156 1.56338 1.5 6.26494 1.5 12.0634C1.5 17.304 5.33906 21.6479 10.3594 22.4363V15.0995H7.69266V12.0634H10.3594V9.7501C10.3594 7.119 11.9273 5.66447 14.3255 5.66447C15.4744 5.66447 16.6763 5.86978 16.6763 5.86978V8.454H15.3516C14.048 8.454 13.6402 9.26307 13.6402 10.0946V12.0634H16.552L16.087 15.0995H13.6406V22.4373C18.6609 21.6493 22.5 17.3054 22.5 12.0634Z" fill="#171719"></path>
  </symbol>
</svg>