<svg width="0" height="0" class="hidden">
  <symbol fill="none" xmlns="http://www.w3.org/2000/svg" viewBox="0 0 24 24" id="music">
    <path d="M9 18V5L21 3V16"  stroke-width="1.5" stroke-linecap="round" stroke-linejoin="round"></path>
    <path d="M6 21C7.65685 21 9 19.6569 9 18C9 16.3431 7.65685 15 6 15C4.34315 15 3 16.3431 3 18C3 19.6569 4.34315 21 6 21Z"  stroke-width="1.5" stroke-linecap="round" stroke-linejoin="round"></path>
    <path d="M18 19C19.6569 19 21 17.6569 21 16C21 14.3431 19.6569 13 18 13C16.3431 13 15 14.3431 15 16C15 17.6569 16.3431 19 18 19Z"  stroke-width="1.5" stroke-linecap="round" stroke-linejoin="round"></path>
  </symbol>
  <symbol fill="none" xmlns="http://www.w3.org/2000/svg" viewBox="0 0 24 24" id="person-outline">
    <path d="M16.125 6.75C15.9413 9.22828 14.0625 11.25 12 11.25C9.93754 11.25 8.05551 9.22875 7.87504 6.75C7.68754 4.17188 9.51566 2.25 12 2.25C14.4844 2.25 16.3125 4.21875 16.125 6.75Z"  stroke-width="1.5" stroke-linecap="round" stroke-linejoin="round"></path>
    <path d="M12 14.25C7.92187 14.25 3.7828 16.5 3.01687 20.7469C2.92452 21.2588 3.21421 21.75 3.74999 21.75H20.25C20.7862 21.75 21.0759 21.2588 20.9836 20.7469C20.2172 16.5 16.0781 14.25 12 14.25Z"  stroke-width="1.5" stroke-miterlimit="10"></path>
  </symbol>

  <symbol fill="none" xmlns="http://www.w3.org/2000/svg" viewBox="0 0 24 24" id="google-dark">
    <path d="M22.1789 10.3819L22.0729 9.93234H12.3023V14.0677H18.1401C17.534 16.9458 14.7215 18.4608 12.4242 18.4608C10.7526 18.4608 8.9906 17.7577 7.82436 16.6275C7.20904 16.0217 6.71926 15.3005 6.38304 14.5051C6.04682 13.7098 5.87078 12.856 5.86498 11.9925C5.86498 10.2506 6.64779 8.50828 7.78686 7.36219C8.92592 6.21609 10.6462 5.57484 12.3567 5.57484C14.3156 5.57484 15.7195 6.615 16.2445 7.08938L19.1831 4.16625C18.3211 3.40875 15.9529 1.5 12.262 1.5C9.41436 1.5 6.68389 2.59078 4.68795 4.58016C2.71826 6.53906 1.69873 9.37172 1.69873 12C1.69873 14.6283 2.66342 17.3194 4.57217 19.2938C6.6117 21.3994 9.50014 22.5 12.4744 22.5C15.1804 22.5 17.7454 21.4397 19.5736 19.5159C21.3708 17.6222 22.3003 15.0019 22.3003 12.255C22.3003 11.0986 22.184 10.4119 22.1789 10.3819Z" fill="#171719"></path>
  </symbol>

  <symbol fill="none" xmlns="http://www.w3.org/2000/svg" viewBox="0 0 24 24" id="apple-dark">
    <path d="M16.3654 6.41531C14.4754 6.41531 13.6766 7.31719 12.3604 7.31719C11.0108 7.31719 9.98147 6.42188 8.34366 6.42188C6.74053 6.42188 5.031 7.40063 3.94538 9.06797C2.421 11.4192 2.67975 15.8475 5.14866 19.62C6.03178 20.9705 7.21116 22.485 8.75803 22.5014H8.78616C10.1305 22.5014 10.5299 21.6211 12.3801 21.6108H12.4082C14.2307 21.6108 14.5963 22.4963 15.9351 22.4963H15.9632C17.5101 22.4798 18.7527 20.8017 19.6358 19.4564C20.2715 18.4889 20.5077 18.0033 20.9952 16.9088C17.4238 15.5531 16.8501 10.4902 20.3821 8.54906C19.304 7.19906 17.789 6.41719 16.3607 6.41719L16.3654 6.41531Z" fill="#171719"></path>
    <path d="M15.9486 1.5C14.8236 1.57641 13.5111 2.29266 12.7423 3.22781C12.0448 4.07531 11.4711 5.3325 11.6961 6.55172H11.7861C12.9842 6.55172 14.2105 5.83031 14.9267 4.90594C15.6167 4.02609 16.1398 2.77922 15.9486 1.5Z" fill="#171719"></path>
  </symbol>

   <symbol fill="none" xmlns="http://www.w3.org/2000/svg" viewBox="0 0 24 24" id="facebook-dark">
    <path fill-rule="evenodd" clip-rule="evenodd" d="M22.5 12.0634C22.5 6.26494 17.7984 1.56338 12 1.56338C6.20156 1.56338 1.5 6.26494 1.5 12.0634C1.5 17.304 5.33906 21.6479 10.3594 22.4363V15.0995H7.69266V12.0634H10.3594V9.7501C10.3594 7.119 11.9273 5.66447 14.3255 5.66447C15.4744 5.66447 16.6763 5.86978 16.6763 5.86978V8.454H15.3516C14.048 8.454 13.6402 9.26307 13.6402 10.0946V12.0634H16.552L16.087 15.0995H13.6406V22.4373C18.6609 21.6493 22.5 17.3054 22.5 12.0634Z" fill="#171719"></path>
  </symbol>

   <symbol fill="none" xmlns="http://www.w3.org/2000/svg" viewBox="0 0 24 24" id="browse">
    <path d="M20.95 14.55L14.56 20.94C13.16 22.34 10.86 22.34 9.45002 20.94L3.06001 14.55C1.66001 13.15 1.66001 10.85 3.06001 9.44001L9.45002 3.05C10.85 1.65 13.15 1.65 14.56 3.05L20.95 9.44001C22.35 10.85 22.35 13.15 20.95 14.55Z"  stroke-width="1.5" stroke-linecap="round" stroke-linejoin="round"></path>
    <path d="M6.25 6.25L17.75 17.75"  stroke-width="1.5" stroke-linecap="round" stroke-linejoin="round"></path>
    <path d="M17.75 6.25L6.25 17.75"  stroke-width="1.5" stroke-linecap="round" stroke-linejoin="round"></path>
  </symbol>

  <symbol fill="none" xmlns="http://www.w3.org/2000/svg" viewBox="0 0 24 24" id="calendar">
    <path d="M8 2V5"  stroke-width="1.5" stroke-miterlimit="10" stroke-linecap="round" stroke-linejoin="round"></path>
    <path d="M16 2V5"  stroke-width="1.5" stroke-miterlimit="10" stroke-linecap="round" stroke-linejoin="round"></path>
    <path d="M3.5 9.09H20.5"  stroke-width="1.5" stroke-miterlimit="10" stroke-linecap="round" stroke-linejoin="round"></path>
    <path d="M21 8.5V17C21 20 19.5 22 16 22H8C4.5 22 3 20 3 17V8.5C3 5.5 4.5 3.5 8 3.5H16C19.5 3.5 21 5.5 21 8.5Z"  stroke-width="1.5" stroke-miterlimit="10" stroke-linecap="round" stroke-linejoin="round"></path>
    <path d="M15.6947 13.7H15.7037"  stroke-width="2" stroke-linecap="round" stroke-linejoin="round"></path>
    <path d="M15.6947 16.7H15.7037"  stroke-width="2" stroke-linecap="round" stroke-linejoin="round"></path>
    <path d="M11.9955 13.7H12.0045"  stroke-width="2" stroke-linecap="round" stroke-linejoin="round"></path>
    <path d="M11.9955 16.7H12.0045"  stroke-width="2" stroke-linecap="round" stroke-linejoin="round"></path>
    <path d="M8.29431 13.7H8.30329"  stroke-width="2" stroke-linecap="round" stroke-linejoin="round"></path>
    <path d="M8.29431 16.7H8.30329"  stroke-width="2" stroke-linecap="round" stroke-linejoin="round"></path>
  </symbol>

  <symbol fill="none" xmlns="http://www.w3.org/2000/svg" viewBox="0 0 24 24" id="cloud-plus">
    <path d="M16.61 20C17.95 20.01 19.24 19.51 20.23 18.61C23.5 15.75 21.75 10.01 17.44 9.47C15.9 0.130002 2.43001 3.67 5.62001 12.56"  stroke-width="1.5" stroke-miterlimit="10" stroke-linecap="round" stroke-linejoin="round"></path>
    <path d="M7.27999 12.97C6.74999 12.7 6.15999 12.56 5.56999 12.57C0.909986 12.9 0.919986 19.68 5.56999 20.01"  stroke-width="1.5" stroke-miterlimit="10" stroke-linecap="round" stroke-linejoin="round"></path>
    <path d="M15.82 9.89C16.34 9.63 16.9 9.49 17.48 9.48"  stroke-width="1.5" stroke-miterlimit="10" stroke-linecap="round" stroke-linejoin="round"></path>
    <path d="M12.97 20H8.97"  stroke-width="1.5" stroke-miterlimit="10" stroke-linecap="round" stroke-linejoin="round"></path>
    <path d="M10.97 22V18"  stroke-width="1.5" stroke-miterlimit="10" stroke-linecap="round" stroke-linejoin="round"></path>
  </symbol>

  <symbol fill="none" xmlns="http://www.w3.org/2000/svg" viewBox="0 0 24 24" id="discover">
    <path d="M17.8 2.1L7.87 4.59C6.42 4.95 4.95 6.42 4.59 7.87L2.1 17.8C1.35 20.8 3.19 22.65 6.2 21.9L16.13 19.42C17.57 19.06 19.05 17.58 19.41 16.14L21.9 6.2C22.65 3.2 20.8 1.35 17.8 2.1Z"  stroke-width="1.5" stroke-linecap="round" stroke-linejoin="round"></path>
    <path d="M12 15.5C13.933 15.5 15.5 13.933 15.5 12C15.5 10.067 13.933 8.5 12 8.5C10.067 8.5 8.5 10.067 8.5 12C8.5 13.933 10.067 15.5 12 15.5Z"  stroke-width="1.5" stroke-linecap="round" stroke-linejoin="round"></path>
  </symbol>

  <symbol fill="none" xmlns="http://www.w3.org/2000/svg" viewBox="0 0 24 24" id="elementsvg">
    <path d="M22 8.52V3.98C22 2.57 21.36 2 19.77 2H15.73C14.14 2 13.5 2.57 13.5 3.98V8.51C13.5 9.93 14.14 10.49 15.73 10.49H19.77C21.36 10.5 22 9.93 22 8.52Z"  stroke-width="1.5" stroke-linecap="round" stroke-linejoin="round"></path>
    <path d="M22 19.77V15.73C22 14.14 21.36 13.5 19.77 13.5H15.73C14.14 13.5 13.5 14.14 13.5 15.73V19.77C13.5 21.36 14.14 22 15.73 22H19.77C21.36 22 22 21.36 22 19.77Z"  stroke-width="1.5" stroke-linecap="round" stroke-linejoin="round"></path>
    <path d="M10.5 8.52V3.98C10.5 2.57 9.86 2 8.27 2H4.23C2.64 2 2 2.57 2 3.98V8.51C2 9.93 2.64 10.49 4.23 10.49H8.27C9.86 10.5 10.5 9.93 10.5 8.52Z"  stroke-width="1.5" stroke-linecap="round" stroke-linejoin="round"></path>
    <path d="M10.5 19.77V15.73C10.5 14.14 9.86 13.5 8.27 13.5H4.23C2.64 13.5 2 14.14 2 15.73V19.77C2 21.36 2.64 22 4.23 22H8.27C9.86 22 10.5 21.36 10.5 19.77Z"  stroke-width="1.5" stroke-linecap="round" stroke-linejoin="round"></path>
  </symbol>

  <symbol fill="none" xmlns="http://www.w3.org/2000/svg" viewBox="0 0 24 24" id="home">
    <path d="M9.02 2.84001L3.63 7.04001C2.73 7.74001 2 9.23001 2 10.36V17.77C2 20.09 3.89 21.99 6.21 21.99H17.79C20.11 21.99 22 20.09 22 17.78V10.5C22 9.29001 21.19 7.74001 20.2 7.05001L14.02 2.72001C12.62 1.74001 10.37 1.79001 9.02 2.84001Z"  stroke-width="1.5" stroke-linecap="round" stroke-linejoin="round"></path>
    <path d="M12 17.99V14.99"  stroke-width="1.5" stroke-linecap="round" stroke-linejoin="round"></path>
  </symbol>

  <symbol fill="none" xmlns="http://www.w3.org/2000/svg" viewBox="0 0 24 24" id="music-circle">
    <path d="M2.57999 8.66998C3.19999 6.90998 4.3 5.37998 5.72 4.22998"  stroke-width="1.5" stroke-linecap="round" stroke-linejoin="round"></path>
    <path d="M2 12C2 13.17 2.20999 14.29 2.57999 15.33"  stroke-width="1.5" stroke-linecap="round" stroke-linejoin="round"></path>
    <path d="M9.09 21.57C10.01 21.85 10.99 22 12 22C17.52 22 22 17.52 22 12C22 11.4 21.94 10.81 21.84 10.24"  stroke-width="1.5" stroke-linecap="round" stroke-linejoin="round"></path>
    <path d="M5.72 19.75C5.25 19.37 4.79999 18.95 4.39999 18.49"  stroke-width="1.5" stroke-linecap="round" stroke-linejoin="round"></path>
    <path d="M20.24 6.34003C18.44 3.72003 15.42 2 12 2C10.99 2 10.01 2.14999 9.09 2.42999"  stroke-width="1.5" stroke-linecap="round" stroke-linejoin="round"></path>
    <path d="M8.59 17.11C9.46813 17.11 10.18 16.3982 10.18 15.52C10.18 14.6419 9.46813 13.93 8.59 13.93C7.71186 13.93 7 14.6419 7 15.52C7 16.3982 7.71186 17.11 8.59 17.11Z"  stroke-width="1.5" stroke-linecap="round" stroke-linejoin="round"></path>
    <path d="M16 14.4601V8.25003C16 6.93003 15.17 6.74 14.33 6.97L11.15 7.84006C10.57 8.00006 10.17 8.45003 10.17 9.12003V10.23V10.97V15.5201"  stroke-width="1.5" stroke-linecap="round" stroke-linejoin="round"></path>
    <path d="M14.41 16.05C15.2881 16.05 16 15.3382 16 14.46C16 13.5819 15.2881 12.87 14.41 12.87C13.5319 12.87 12.82 13.5819 12.82 14.46C12.82 15.3382 13.5319 16.05 14.41 16.05Z"  stroke-width="1.5" stroke-linecap="round" stroke-linejoin="round"></path>
    <path d="M10.18 10.76L16 9.16998"  stroke-width="1.5" stroke-linecap="round" stroke-linejoin="round"></path>
  </symbol>

  <symbol fill="none" xmlns="http://www.w3.org/2000/svg" viewBox="0 0 24 24" id="musicnote">
    <path d="M7.97 22C10.1791 22 11.97 20.2091 11.97 18C11.97 15.7909 10.1791 14 7.97 14C5.76086 14 3.97 15.7909 3.97 18C3.97 20.2091 5.76086 22 7.97 22Z"  stroke-width="1.5" stroke-linecap="round" stroke-linejoin="round"></path>
    <path d="M11.97 18V4"  stroke-width="1.5" stroke-linecap="round" stroke-linejoin="round"></path>
    <path d="M14.61 2.11L19.03 3.58C20.1 3.94 20.98 5.15 20.98 6.28V7.45C20.98 8.98 19.8 9.83 18.35 9.35L13.93 7.88C12.86 7.52 11.98 6.31 11.98 5.18V4C11.97 2.48 13.16 1.62 14.61 2.11Z"  stroke-width="1.5" stroke-linecap="round" stroke-linejoin="round"></path>
  </symbol>

  <symbol fill="none" xmlns="http://www.w3.org/2000/svg" viewBox="0 0 24 24" id="music-playlist">
    <path d="M17 22H7C4 22 2 20.5 2 17V12C2 8.5 4 7 7 7H17C20 7 22 8.5 22 12V17C22 20.5 20 22 17 22Z"  stroke-width="1.5" stroke-miterlimit="10" stroke-linecap="round" stroke-linejoin="round"></path>
    <path d="M6 4.5H18"  stroke-width="1.5" stroke-miterlimit="10" stroke-linecap="round" stroke-linejoin="round"></path>
    <path d="M9 2H15"  stroke-width="1.5" stroke-miterlimit="10" stroke-linecap="round" stroke-linejoin="round"></path>
    <path d="M8.89001 19.11C9.64664 19.11 10.26 18.4966 10.26 17.74C10.26 16.9834 9.64664 16.37 8.89001 16.37C8.13338 16.37 7.52002 16.9834 7.52002 17.74C7.52002 18.4966 8.13338 19.11 8.89001 19.11Z"  stroke-width="1.5" stroke-linecap="round" stroke-linejoin="round"></path>
    <path d="M15.28 16.83V11.48C15.28 10.34 14.57 10.18 13.84 10.38L11.1 11.13C10.6 11.27 10.26 11.66 10.26 12.23V13.18V13.82V17.74"  stroke-width="1.5" stroke-linecap="round" stroke-linejoin="round"></path>
    <path d="M13.91 18.2C14.6666 18.2 15.28 17.5866 15.28 16.83C15.28 16.0734 14.6666 15.46 13.91 15.46C13.1533 15.46 12.54 16.0734 12.54 16.83C12.54 17.5866 13.1533 18.2 13.91 18.2Z"  stroke-width="1.5" stroke-linecap="round" stroke-linejoin="round"></path>
    <path d="M10.26 13.83L15.28 12.46"  stroke-width="1.5" stroke-linecap="round" stroke-linejoin="round"></path>
  </symbol>
  
  <symbol fill="none" xmlns="http://www.w3.org/2000/svg" viewBox="0 0 24 24" id="trend-up">
    <path d="M16.5 9.5L12.3 13.7L10.7 11.3L7.5 14.5"  stroke-width="1.5" stroke-linecap="round" stroke-linejoin="round"></path>
    <path d="M14.5 9.5H16.5V11.5"  stroke-width="1.5" stroke-linecap="round" stroke-linejoin="round"></path>
    <path d="M9 22H15C20 22 22 20 22 15V9C22 4 20 2 15 2H9C4 2 2 4 2 9V15C2 20 4 22 9 22Z"  stroke-width="1.5" stroke-linecap="round" stroke-linejoin="round"></path>
  </symbol>

   <symbol fill="none" xmlns="http://www.w3.org/2000/svg" viewBox="0 0 24 24" id="blog">
    <path d="M8 2V5" stroke-width="1.5" stroke-miterlimit="10" stroke-linecap="round" stroke-linejoin="round"></path>
    <path d="M16 2V5" stroke-width="1.5" stroke-miterlimit="10" stroke-linecap="round" stroke-linejoin="round"></path>
    <path d="M7 13H15" stroke-width="1.5" stroke-miterlimit="10" stroke-linecap="round" stroke-linejoin="round"></path>
    <path d="M7 17H12" stroke-width="1.5" stroke-miterlimit="10" stroke-linecap="round" stroke-linejoin="round"></path>
    <path d="M16 3.5C19.33 3.68 21 4.95 21 9.65V15.83C21 19.95 20 22.01 15 22.01H9C4 22.01 3 19.95 3 15.83V9.65C3 4.95 4.67 3.69 8 3.5H16Z" stroke-width="1.5" stroke-miterlimit="10" stroke-linecap="round" stroke-linejoin="round"></path>
  </symbol>

   <symbol fill="none" xmlns="http://www.w3.org/2000/svg" viewBox="0 0 24 24" id="heart-outline">
    <path d="M12.62 20.81C12.28 20.93 11.72 20.93 11.38 20.81C8.48 19.82 2 15.69 2 8.69001C2 5.60001 4.49 3.10001 7.56 3.10001C9.38 3.10001 10.99 3.98001 12 5.34001C13.01 3.98001 14.63 3.10001 16.44 3.10001C19.51 3.10001 22 5.60001 22 8.69001C22 15.69 15.52 19.82 12.62 20.81Z" stroke-width="1.5" stroke-linecap="round" stroke-linejoin="round"></path>
  </symbol>

  <symbol fill="none" xmlns="http://www.w3.org/2000/svg" viewBox="0 0 24 24" id="next">
    <path d="M3.76001 7.21999V16.79C3.76001 18.75 5.89 19.98 7.59 19L11.74 16.61L15.89 14.21C17.59 13.23 17.59 10.78 15.89 9.79998L11.74 7.39998L7.59 5.01C5.89 4.03 3.76001 5.24999 3.76001 7.21999Z" stroke-width="1.5" stroke-linecap="round" stroke-linejoin="round"></path>
    <path d="M20.24 18.18V5.82001" stroke-width="1.5" stroke-linecap="round" stroke-linejoin="round"></path>
  </symbol>

  <symbol fill="none" xmlns="http://www.w3.org/2000/svg" viewBox="0 0 24 24" id="pause">
    <path d="M10.65 19.11V4.89C10.65 3.54 10.08 3 8.64 3H5.01C3.57 3 3 3.54 3 4.89V19.11C3 20.46 3.57 21 5.01 21H8.64C10.08 21 10.65 20.46 10.65 19.11Z" fill="#262629"></path>
    <path d="M21 19.11V4.89C21 3.54 20.43 3 18.99 3H15.36C13.93 3 13.35 3.54 13.35 4.89V19.11C13.35 20.46 13.92 21 15.36 21H18.99C20.43 21 21 20.46 21 19.11Z" fill="#262629"></path>
  </symbol>

  <symbol fill="none" xmlns="http://www.w3.org/2000/svg" viewBox="0 0 24 24" id="previous">
    <path d="M20.24 7.21999V16.79C20.24 18.75 18.11 19.98 16.41 19L12.26 16.61L8.10999 14.21C6.40999 13.23 6.40999 10.78 8.10999 9.79998L12.26 7.39998L16.41 5.01C18.11 4.03 20.24 5.24999 20.24 7.21999Z" stroke-width="1.5" stroke-linecap="round" stroke-linejoin="round"></path>
    <path d="M3.76001 18.18V5.82001" stroke-width="1.5" stroke-linecap="round" stroke-linejoin="round"></path>
  </symbol>

  <symbol fill="none" xmlns="http://www.w3.org/2000/svg" viewBox="0 0 24 24" id="repeate">
    <path d="M14 3L16.44 5.34003L8.48999 5.32001C4.91999 5.32001 1.98999 8.25003 1.98999 11.84C1.98999 13.63 2.71999 15.26 3.89999 16.44" stroke-width="1.5" stroke-linecap="round" stroke-linejoin="round"></path>
    <path d="M10 21L7.56 18.66L15.51 18.68C19.08 18.68 22.01 15.75 22.01 12.16C22.01 10.37 21.28 8.74 20.1 7.56" stroke-width="1.5" stroke-linecap="round" stroke-linejoin="round"></path>
  </symbol>

  <symbol fill="none" xmlns="http://www.w3.org/2000/svg" viewBox="0 0 24 24" id="stuffle">
    <path d="M3 17.98L5.54999 17.99C6.45999 17.99 7.31 17.54 7.81 16.79L14.2 7.21C14.7 6.46 15.55 5.99999 16.46 6.00999L21.01 6.03001" stroke-width="1.5" stroke-linecap="round" stroke-linejoin="round"></path>
    <path d="M19 19.98L21 17.98" stroke-width="1.5" stroke-linecap="round" stroke-linejoin="round"></path>
    <path d="M8.89001 8.61999L7.81 7.11999C7.3 6.40999 6.47999 5.98999 5.60999 5.99999L3 6.01" stroke-width="1.5" stroke-linecap="round" stroke-linejoin="round"></path>
    <path d="M12.97 15.38L14.19 16.95C14.7 17.61 15.5 18 16.34 18L21.01 17.98" stroke-width="1.5" stroke-linecap="round" stroke-linejoin="round"></path>
    <path d="M21 6.02002L19 4.02002" stroke-width="1.5" stroke-linecap="round" stroke-linejoin="round"></path>
  </symbol>

  <symbol fill="none" xmlns="http://www.w3.org/2000/svg" viewBox="0 0 24 24" id="swap states">
    <path d="M22 10V9C22 4 20 2 15 2H9C4 2 2 4 2 9V15C2 20 4 22 9 22H11" stroke-width="1.5" stroke-linecap="round" stroke-linejoin="round"></path>
    <path d="M15.51 22C16.6146 22 17.51 21.1046 17.51 20C17.51 18.8954 16.6146 18 15.51 18C14.4054 18 13.51 18.8954 13.51 20C13.51 21.1046 14.4054 22 15.51 22Z" stroke-width="1.5" stroke-linecap="round" stroke-linejoin="round"></path>
    <path d="M17.51 20V13.01" stroke-width="1.5" stroke-linecap="round" stroke-linejoin="round"></path>
    <path d="M18.82 12.07L21.03 12.81C21.56 12.99 22 13.59 22 14.16V14.75C22 15.51 21.41 15.94 20.69 15.7L18.48 14.96C17.95 14.78 17.51 14.18 17.51 13.61V13.02C17.51 12.25 18.1 11.83 18.82 12.07Z" stroke-width="1.5" stroke-linecap="round" stroke-linejoin="round"></path>
  </symbol>

  <symbol fill="none" xmlns="http://www.w3.org/2000/svg" viewBox="0 0 24 24" id="volume-low">
    <path d="M3.33002 10V14C3.33002 16 4.33002 17 6.33002 17H7.76002C8.13002 17 8.50002 17.11 8.82002 17.3L11.74 19.13C14.26 20.71 16.33 19.56 16.33 16.59V7.41C16.33 4.43 14.26 3.29 11.74 4.87L8.82002 6.7C8.50002 6.89 8.13002 7 7.76002 7H6.33002C4.33002 7 3.33002 8 3.33002 10Z" stroke-width="1.5"></path>
    <path d="M19.33 8C21.11 10.37 21.11 13.63 19.33 16" stroke-width="1.5" stroke-linecap="round" stroke-linejoin="round"></path>
  </symbol>

  <symbol fill="none" xmlns="http://www.w3.org/2000/svg" viewBox="0 0 24 24" id="play">
    <path d="M4 12V8.43999C4 4.01999 7.13 2.20999 10.96 4.41999L14.05 6.19999L17.14 7.97999C20.97 10.19 20.97 13.81 17.14 16.02L14.05 17.8L10.96 19.58C7.13 21.79 4 19.98 4 15.56V12Z" fill="#262629"></path>
  </symbol>

   <symbol fill="none" xmlns="http://www.w3.org/2000/svg" viewBox="0 0 12 12" id="headphone">
    <path d="M2.73002 9.2449V7.7849C2.73002 7.2999 3.11002 6.8649 3.65002 6.8649C4.13502 6.8649 4.57002 7.2449 4.57002 7.7849V9.1899C4.57002 10.1649 3.76002 10.9749 2.78502 10.9749C1.81002 10.9749 1.00002 10.1599 1.00002 9.1899V6.1099C0.945024 3.2999 3.16502 1.0249 5.97502 1.0249C8.78502 1.0249 11 3.2999 11 6.0549V9.1349C11 10.1099 10.19 10.9199 9.21502 10.9199C8.24002 10.9199 7.43002 10.1099 7.43002 9.1349V7.7299C7.43002 7.2449 7.81002 6.8099 8.35002 6.8099C8.83502 6.8099 9.27002 7.1899 9.27002 7.7299V9.2449"  stroke-width="0.75" stroke-linecap="round" stroke-linejoin="round"></path>
  </symbol>

   <symbol fill="none" xmlns="http://www.w3.org/2000/svg" viewBox="0 0 24 24" id="arrow-down">
    <path d="M19.92 8.95001L13.4 15.47C12.63 16.24 11.37 16.24 10.6 15.47L4.08002 8.95001" stroke-width="1.5" stroke-miterlimit="10" stroke-linecap="round" stroke-linejoin="round"></path>
  </symbol>

  <symbol fill="none" xmlns="http://www.w3.org/2000/svg" viewBox="0 0 24 24" id="notification">
    <path d="M12.02 2.91C8.71003 2.91 6.02003 5.6 6.02003 8.91V11.8C6.02003 12.41 5.76003 13.34 5.45003 13.86L4.30003 15.77C3.59003 16.95 4.08003 18.26 5.38003 18.7C9.69003 20.14 14.34 20.14 18.65 18.7C19.86 18.3 20.39 16.87 19.73 15.77L18.58 13.86C18.28 13.34 18.02 12.41 18.02 11.8V8.91C18.02 5.61 15.32 2.91 12.02 2.91Z" stroke-width="1.5" stroke-miterlimit="10" stroke-linecap="round"></path>
    <path d="M13.87 3.2C13.56 3.11 13.24 3.04 12.91 3C11.95 2.88 11.03 2.95 10.17 3.2C10.46 2.46 11.18 1.94 12.02 1.94C12.86 1.94 13.58 2.46 13.87 3.2Z" stroke-width="1.5" stroke-miterlimit="10" stroke-linecap="round" stroke-linejoin="round"></path>
    <path d="M15.02 19.06C15.02 20.71 13.67 22.06 12.02 22.06C11.2 22.06 10.44 21.72 9.90002 21.18C9.36002 20.64 9.02002 19.88 9.02002 19.06" stroke-width="1.5" stroke-miterlimit="10"></path>
  </symbol>

  <symbol fill="none" xmlns="http://www.w3.org/2000/svg" viewBox="0 0 24 24" id="search-normal">
    <path d="M11.5 21C16.7467 21 21 16.7467 21 11.5C21 6.25329 16.7467 2 11.5 2C6.25329 2 2 6.25329 2 11.5C2 16.7467 6.25329 21 11.5 21Z"  stroke-width="1.5" stroke-linecap="round" stroke-linejoin="round"></path>
    <path d="M22 22L20 20" stroke-width="1.5" stroke-linecap="round" stroke-linejoin="round"></path>
  </symbol>
</svg>